<?xml version="1.0" standalone="no"?>
<!DOCTYPE svg PUBLIC "-//W3C//DTD SVG 20010904//EN"
 "http://www.w3.org/TR/2001/REC-SVG-20010904/DTD/svg10.dtd">
<svg version="1.0" xmlns="http://www.w3.org/2000/svg"
 width="139.000000pt" height="139.000000pt" viewBox="0 0 139.000000 139.000000"
 preserveAspectRatio="xMidYMid meet">
<metadata>
Created by potrace 1.14, written by Peter Selinger 2001-2017
</metadata>
<g transform="translate(0.000000,139.000000) scale(0.100000,-0.100000)"
fill="#000000" stroke="none">
<path d="M542 1360 c-483 -130 -676 -698 -372 -1092 183 -237 507 -326 793
-218 142 54 284 181 355 319 61 117 72 165 72 322 0 110 -4 150 -21 205 -62
205 -238 384 -443 450 -112 37 -278 43 -384 14z m341 -260 c89 -22 172 -45
185 -50 21 -9 22 -13 22 -169 0 -88 -5 -195 -11 -238 -24 -180 -145 -335 -325
-414 l-44 -20 -81 42 c-92 48 -178 127 -226 210 -54 90 -63 147 -63 381 l0
208 28 7 c15 3 92 23 172 44 80 20 153 38 163 38 10 1 91 -17 180 -39z"/>
<path d="M650 1011 c-45 -10 -97 -35 -135 -67 l-30 -25 35 -31 c32 -28 93 -83
162 -146 l27 -25 43 38 c24 21 74 67 111 102 67 62 68 65 51 84 -47 52 -182
88 -264 70z"/>
</g>
</svg>
